HIERARCHY
ROOT Hips
{
 OFFSET 0.000000 0.000000 0.000000
 CHANNELS 6 Xposition Yposition Zposition Yrotation Xrotation Zrotation
 JOINT Chest
 {
  OFFSET 0.000000 9.585900 0.002600
  CHANNELS 3 Yrotation Xrotation Zrotation
  JOINT Chest2
  {
   OFFSET 0.000000 9.601200 -0.005300
   CHANNELS 3 Yrotation Xrotation Zrotation
   JOINT Chest3
   {
    OFFSET 0.000000 9.561800 0.000000
    CHANNELS 3 Yrotation Xrotation Zrotation
    JOINT Chest4
    {
     OFFSET 0.000000 9.552100 0.000000
     CHANNELS 3 Yrotation Xrotation Zrotation
     JOINT Neck
     {
      OFFSET 0.000000 14.453000 0.000000
      CHANNELS 3 Yrotation Xrotation Zrotation
      JOINT Head
      {
       OFFSET 0.000000 8.936500 -0.011300
       CHANNELS 3 Yrotation Xrotation Zrotation
       End Site
       {
        OFFSET 0.000000 17.073600 -0.006000
       }
      }
     }
     JOINT RightCollar
     {
      OFFSET -2.921100 9.558500 0.000000
      CHANNELS 3 Yrotation Xrotation Zrotation
      JOINT RightShoulder
      {
       OFFSET -13.519700 0.000000 0.000000
       CHANNELS 3 Yrotation Xrotation Zrotation
       JOINT RightElbow
       {
        OFFSET 0.000000 -29.696600 0.000000
        CHANNELS 3 Yrotation Xrotation Zrotation
        JOINT RightWrist
        {
         OFFSET 0.000000 -24.004700 0.000000
         CHANNELS 3 Yrotation Xrotation Zrotation
         End Site
         {
          OFFSET 0.000000 -17.728500 0.000000
         }
        }
       }
      }
     }
     JOINT LeftCollar
     {
      OFFSET 2.921100 9.558500 0.000000
      CHANNELS 3 Yrotation Xrotation Zrotation
      JOINT LeftShoulder
      {
       OFFSET 13.519700 0.000000 0.000000
       CHANNELS 3 Yrotation Xrotation Zrotation
       JOINT LeftElbow
       {
        OFFSET 0.000000 -29.696600 0.000000
        CHANNELS 3 Yrotation Xrotation Zrotation
        JOINT LeftWrist
        {
         OFFSET 0.000000 -24.004700 0.000000
         CHANNELS 3 Yrotation Xrotation Zrotation
         End Site
         {
          OFFSET 0.000000 -17.728500 0.000000
         }
        }
       }
      }
     }
    }
   }
  }
 }
 JOINT RightHip
 {
  OFFSET -7.771700 -0.012900 -0.001300
  CHANNELS 3 Yrotation Xrotation Zrotation
  JOINT RightKnee
  {
   OFFSET 0.000000 -40.869800 0.001200
   CHANNELS 3 Yrotation Xrotation Zrotation
   JOINT RightAnkle
   {
    OFFSET 0.000000 -39.717900 0.002100
    CHANNELS 3 Yrotation Xrotation Zrotation
    JOINT RightToe
    {
     OFFSET 0.000000 -4.965400 11.033500
     CHANNELS 3 Yrotation Xrotation Zrotation
     End Site
     {
      OFFSET 0.000000 -1.423100 5.872300
     }
    }
   }
  }
 }
 JOINT LeftHip
 {
  OFFSET 7.771700 -0.012900 -0.001300
  CHANNELS 3 Yrotation Xrotation Zrotation
  JOINT LeftKnee
  {
   OFFSET 0.000000 -40.869800 0.001200
   CHANNELS 3 Yrotation Xrotation Zrotation
   JOINT LeftAnkle
   {
    OFFSET 0.000000 -39.717900 0.002100
    CHANNELS 3 Yrotation Xrotation Zrotation
    JOINT LeftToe
    {
     OFFSET 0.000000 -4.965400 11.033500
     CHANNELS 3 Yrotation Xrotation Zrotation
     End Site
     {
      OFFSET 0.000000 -1.423100 5.872300
     }
    }
   }
  }
 }
}
MOTION
Frames: 16
Frame Time: 0.008333
-15.382155 57.882378 65.040710 172.699718 -28.002678 -2.767390 5.411755 20.057727 5.425719 0.588174 2.674020 0.402675 0.971026 4.364251 0.672389 4.289032 17.328973 3.208199 -1.287628 14.343578 -0.259206 -2.325616 -9.147098 0.011022 3.185210 -3.849227 -0.486257 13.553284 -17.657216 -20.040597 165.898092 -83.183232 -131.405307 19.106663 -20.338063 -52.406174 -7.821300 -4.697898 -2.701547 0.194375 -14.172045 4.266592 -141.233328 -79.455698 107.628710 -7.140318 -2.152097 17.545411 8.585106 -43.753613 1.108655 -3.505508 67.676848 -6.981994 5.433085 7.397877 9.940924 -0.558375 0.668805 -0.252908 -5.785258 -50.217519 7.750328 26.884132 62.059517 25.448611 -15.918960 36.614345 2.271507 0.102211 -17.270284 -6.113532
-15.379743 57.883526 65.039739 172.703940 -27.991933 -2.783381 5.414212 20.049476 5.441188 0.589282 2.675491 0.403448 0.968867 4.361827 0.671446 4.286327 17.329733 3.207659 -1.292662 14.339198 -0.273411 -2.327342 -9.153062 -0.016862 3.189733 -3.858372 -0.495619 13.554048 -17.657800 -20.038823 165.938949 -83.183616 -131.439940 19.104925 -20.331474 -52.409938 -7.830091 -4.705241 -2.696514 0.185697 -14.171728 4.275460 -141.287674 -79.451855 107.668277 -7.129820 -2.140257 17.568862 8.573516 -43.764267 1.118004 -3.504251 67.678124 -6.971036 5.439237 7.398770 9.936121 -0.559742 0.661949 -0.253309 -5.778500 -50.239514 7.755289 26.880846 62.064579 25.466524 -15.936487 36.644855 2.272099 0.112381 -17.294565 -6.122501
-15.378866 57.884960 65.038071 172.704115 -27.985044 -2.786925 5.418861 20.046149 5.447360 0.587195 2.673196 0.402456 0.969451 4.363232 0.671919 4.283313 17.327970 3.206286 -1.308318 14.338244 -0.299433 -2.327171 -9.162734 -0.029701 3.181417 -3.865618 -0.497585 13.567874 -17.657410 -20.042221 165.938624 -83.179162 -131.441231 19.093805 -20.325187 -52.408825 -7.833317 -4.708109 -2.695217 0.169219 -14.175927 4.289216 -141.322945 -79.454624 107.710531 -7.137061 -2.144851 17.554640 8.571403 -43.768825 1.116047 -3.498890 67.679190 -6.960230 5.445782 7.393789 9.931297 -0.564039 0.661715 -0.251938 -5.779886 -50.247705 7.759699 26.925221 62.054020 25.510696 -15.958956 36.657264 2.270679 0.110144 -17.304920 -6.122199
-15.378990 57.885665 65.037872 172.696214 -27.967660 -2.781333 5.424052 20.037273 5.445509 0.587183 2.672733 0.402183 0.969424 4.362090 0.671508 4.283427 17.326414 3.204714 -1.317790 14.333015 -0.310258 -2.332005 -9.173697 -0.058518 3.184952 -3.876402 -0.498649 13.570430 -17.666058 -20.062815 166.018984 -83.188902 -131.516250 19.091984 -20.324163 -52.411232 -7.847983 -4.717815 -2.683437 0.168548 -14.177251 4.293595 -141.349154 -79.461058 107.748362 -7.138108 -2.144953 17.547058 8.579686 -43.784464 1.106911 -3.494651 67.679402 -6.953606 5.449174 7.387663 9.928428 -0.564817 0.662198 -0.252237 -5.761044 -50.265600 7.752132 26.957580 62.045544 25.542957 -15.959228 36.656112 2.282122 0.101497 -17.299815 -6.121137
-15.369813 57.890068 65.033045 172.668431 -27.991244 -2.817868 5.470908 20.066680 5.508114 0.585560 2.671720 0.402037 0.967020 4.360770 0.671133 4.271518 17.326161 3.205472 -1.317311 14.323152 -0.333758 -2.338102 -9.182508 -0.085849 3.198983 -3.887800 -0.512074 13.568973 -17.664689 -20.063945 165.922385 -83.169030 -131.412714 19.084267 -20.334608 -52.417126 -7.847190 -4.731694 -2.688645 0.173551 -14.175674 4.295865 -141.379773 -79.461636 107.781235 -7.136146 -2.140283 17.546967 8.549594 -43.765998 1.177722 -3.468946 67.680876 -6.923882 5.483646 7.378026 9.939906 -0.602001 0.653464 -0.268056 -5.792199 -50.237825 7.822839 27.038646 62.036289 25.625581 -15.929988 36.665223 2.328304 0.055900 -17.319344 -6.137102
-15.367856 57.892752 65.030117 172.657423 -27.993586 -2.820865 5.490584 20.081252 5.525631 0.578369 2.664330 0.398000 0.970666 4.361866 0.674622 4.266759 17.319280 3.199373 -1.323042 14.320339 -0.347675 -2.343236 -9.189332 -0.112546 3.204727 -3.890208 -0.516489 13.562632 -17.674667 -20.061593 165.881049 -83.169989 -131.366523 19.076891 -20.338815 -52.415897 -7.862691 -4.733337 -2.682869 0.183304 -14.177496 4.297583 -141.459472 -79.448028 107.826962 -7.132343 -2.133937 17.563974 8.544356 -43.760886 1.189923 -3.440891 67.680297 -6.895916 5.480856 7.373389 9.934423 -0.601978 0.650440 -0.268666 -5.794824 -50.233727 7.835276 27.070546 62.037555 25.659330 -15.925575 36.646807 2.333887 0.064479 -17.305403 -6.145777
-15.367008 57.895435 65.027115 172.652459 -27.994748 -2.820260 5.499835 20.086783 5.530188 0.581903 2.663789 0.401854 0.965019 4.358948 0.670832 4.264830 17.317978 3.202894 -1.331112 14.317179 -0.366728 -2.349165 -9.194837 -0.139583 3.211511 -3.894489 -0.526789 13.559751 -17.685333 -20.078538 166.015192 -83.184558 -131.502454 19.074407 -20.345984 -52.413225 -7.871962 -4.732996 -2.680378 0.179658 -14.185212 4.305901 -141.494798 -79.451471 107.855881 -7.129265 -2.136998 17.560146 8.540272 -43.757403 1.192997 -3.419304 67.682414 -6.874306 5.477811 7.370763 9.927797 -0.600343 0.645173 -0.267694 -5.800413 -50.228738 7.842011 27.090905 62.041399 25.675600 -15.905456 36.617714 2.348145 0.053159 -17.284925 -6.149658
-15.368564 57.896719 65.026421 172.655478 -27.977780 -2.811278 5.493640 20.077457 5.520813 0.582960 2.667752 0.402372 0.963441 4.350340 0.667121 4.256125 17.314223 3.203139 -1.332839 14.315678 -0.383843 -2.349962 -9.197630 -0.167231 3.221872 -3.899798 -0.533660 13.562158 -17.686373 -20.084176 166.072892 -83.191299 -131.563391 19.073153 -20.348316 -52.411137 -7.878364 -4.730526 -2.676688 0.175147 -14.189261 4.316953 -141.537461 -79.457005 107.902622 -7.129815 -2.142557 17.551776 8.545097 -43.770391 1.174247 -3.409879 67.684569 -6.863280 5.471296 7.362456 9.919615 -0.594143 0.649477 -0.264539 -5.813893 -50.232931 7.840678 27.106089 62.034842 25.676832 -15.880615 36.564460 2.353751 0.030850 -17.237908 -6.141229
-15.369753 57.898638 65.024715 172.660671 -27.968592 -2.805186 5.485507 20.076174 5.516022 0.581264 2.664565 0.401195 0.964167 4.348623 0.666024 4.249780 17.310152 3.202856 -1.337947 14.314044 -0.403510 -2.345541 -9.199923 -0.200703 3.234470 -3.901706 -0.544781 13.560785 -17.691876 -20.088471 166.126797 -83.195747 -131.611949 19.064601 -20.367510 -52.402389 -7.902704 -4.730184 -2.673717 0.195886 -14.192263 4.326458 -141.602632 -79.466289 107.964455 -7.127130 -2.141319 17.553163 8.544932 -43.775019 1.160771 -3.410079 67.687277 -6.862566 5.468810 7.351927 9.913541 -0.589300 0.649149 -0.263037 -5.820566 -50.235089 7.836328 27.110396 62.033374 25.672934 -15.868936 36.534940 2.361079 0.020423 -17.210537 -6.141393
-15.370691 57.900898 65.022409 172.647915 -27.965823 -2.792109 5.493480 20.075690 5.510237 0.581102 2.665953 0.402535 0.958905 4.347875 0.669891 4.247965 17.305749 3.199542 -1.339852 14.314265 -0.417913 -2.363933 -9.212911 -0.277749 3.240807 -3.901650 -0.557720 13.563310 -17.700397 -20.092097 166.180579 -83.202483 -131.661264 19.060708 -20.373873 -52.406685 -7.909575 -4.729633 -2.675159 0.193883 -14.189987 4.343171 -141.702431 -79.477398 108.066575 -7.125730 -2.138626 17.552120 8.544127 -43.772302 1.158540 -3.396801 67.685836 -6.857812 5.470404 7.335440 9.909941 -0.590240 0.655271 -0.264064 -5.808438 -50.233050 7.829744 27.098206 62.038224 25.655462 -15.839327 36.514896 2.379898 0.009593 -17.186889 -6.147627
-15.371765 57.902666 65.020998 172.646514 -27.958390 -2.784320 5.493130 20.070470 5.504990 0.579745 2.668218 0.402163 0.958384 4.345131 0.669262 4.244238 17.302968 3.202557 -1.342653 14.313692 -0.431631 -2.365154 -9.212904 -0.282845 3.246896 -3.903391 -0.566617 13.565779 -17.707973 -20.097835 166.218826 -83.209158 -131.698047 19.058299 -20.381654 -52.411108 -7.915442 -4.728623 -2.676433 0.195859 -14.184888 4.351550 -141.786406 -79.481275 108.149146 -7.123068 -2.135691 17.548789 8.543824 -43.774231 1.151098 -3.390218 67.684691 -6.856921 5.471924 7.322084 9.911344 -0.593517 0.650510 -0.265222 -5.799612 -50.236671 7.817567 27.037663 62.053936 25.595488 -15.760988 36.488843 2.411684 -0.023383 -17.162245 -6.146961
-15.372356 57.903415 65.021573 172.653930 -27.940176 -2.784627 5.483196 20.060342 5.499737 0.580249 2.663034 0.403916 0.957745 4.345080 0.668019 4.240025 17.296125 3.205860 -1.364540 14.305515 -0.469311 -2.363481 -9.209644 -0.306018 3.255589 -3.900955 -0.570893 13.568920 -17.713212 -20.106385 166.254019 -83.210889 -131.729496 19.056747 -20.382576 -52.416831 -7.913774 -4.724038 -2.681505 0.187648 -14.177660 4.359782 -141.838539 -79.480495 108.209677 -7.118247 -2.138599 17.537036 8.533058 -43.787491 1.147945 -3.386478 67.682568 -6.856698 5.466265 7.312956 9.909080 -0.591936 0.653007 -0.265806 -5.799150 -50.252503 7.808532 26.993894 62.057633 25.558039 -15.724162 36.480091 2.430227 -0.035622 -17.150013 -6.154127
-15.372742 57.903947 65.022337 172.668615 -27.923142 -2.788697 5.471393 20.047231 5.498389 0.574808 2.659738 0.403791 0.960073 4.343943 0.668370 4.234015 17.289810 3.207406 -1.376266 14.300634 -0.492764 -2.370993 -9.211345 -0.344928 3.260587 -3.894788 -0.574924 13.571572 -17.713997 -20.109747 166.302061 -83.203559 -131.771388 19.053498 -20.372984 -52.420153 -7.924843 -4.715198 -2.678671 0.198346 -14.175410 4.356310 -141.863981 -79.479186 108.239763 -7.115588 -2.142781 17.526930 8.517711 -43.800747 1.143313 -3.378440 67.682295 -6.848055 5.455107 7.307521 9.899966 -0.585298 0.652761 -0.262704 -5.803435 -50.269402 7.799170 26.958078 62.057384 25.531759 -15.714431 36.483119 2.433399 -0.047821 -17.141172 -6.155865
-15.372032 57.904454 65.023119 172.666117 -27.910239 -2.789814 5.467900 20.035595 5.500351 0.578532 2.658569 0.401763 0.955620 4.339460 0.672866 4.235903 17.290940 3.203674 -1.391877 14.288841 -0.515080 -2.414243 -9.251987 -0.437842 3.262816 -3.890615 -0.576918 13.575815 -17.722254 -20.119636 166.392669 -83.204815 -131.851004 19.056023 -20.368021 -52.418524 -7.951368 -4.709280 -2.662786 0.223216 -14.173384 4.345019 -141.906742 -79.487799 108.267272 -7.124245 -2.141659 17.544653 8.516900 -43.812904 1.144438 -3.375413 67.680916 -6.843040 5.448300 7.307333 9.895978 -0.579793 0.652362 -0.262624 -5.796593 -50.284540 7.796823 26.942707 62.057186 25.525588 -15.709365 36.492148 2.435037 -0.062290 -17.129723 -6.153919
-15.370532 57.904687 65.024223 172.669281 -27.897620 -2.796967 5.472268 20.031216 5.509011 0.576373 2.651627 0.403399 0.952414 4.337283 0.669696 4.234769 17.287619 3.204657 -1.409964 14.273896 -0.537831 -2.433896 -9.277168 -0.478636 3.263600 -3.887462 -0.577286 13.582930 -17.739927 -20.134193 166.456859 -83.224843 -131.914319 19.056202 -20.377550 -52.410253 -7.957383 -4.704942 -2.659389 0.200298 -14.148184 4.353152 -141.971899 -79.476434 108.360436 -7.125212 -2.142930 17.549969 8.501103 -43.825561 1.158042 -3.362148 67.679982 -6.836572 5.440197 7.311983 9.892805 -0.574967 0.647386 -0.260453 -5.796666 -50.301231 7.798668 26.933644 62.057126 25.526840 -15.709690 36.504978 2.438882 -0.063852 -17.134657 -6.159246
-15.367953 57.904399 65.026146 172.681317 -27.881360 -2.814034 5.468410 20.018791 5.519602 0.574495 2.651441 0.402655 0.951932 4.333297 0.671696 4.225998 17.282284 3.205545 -1.422877 14.257913 -0.562334 -2.456484 -9.309666 -0.520561 3.272585 -3.882168 -0.581922 13.583913 -17.749232 -20.138584 166.496070 -83.228011 -131.950730 19.054170 -20.396421 -52.397206 -7.962956 -4.695720 -2.650961 0.199831 -14.139478 4.346607 -141.981842 -79.473773 108.379773 -7.117746 -2.146540 17.555200 8.476012 -43.841905 1.176148 -3.361533 67.677850 -6.837583 5.435788 7.316998 9.891224 -0.575319 0.639206 -0.260721 -5.812522 -50.322168 7.809218 26.942312 62.045636 25.554149 -15.756956 36.534629 2.404005 -0.043689 -17.150395 -6.156583
